PathFileType	4	(x/y/z)	TRC_MarkerData\Passive\Passive_Pref0004.trc
DataRate	CameraRate	NumFrames	NumMarkers	Units	OrigDataRate	OrigDataStartFrame	OrigNumFrames
240	240	4	49	mm	240	162	259
Frame#	Time	R_AC			L_AC			HEAD			STERN			L_IC			R_IC			L_ASIS			R_ASIS			L_GT			R_GT			L_PSIS			R_PSIS			SACRAL			L_LAT_KNEE			L_MED_KNEE			R_LAT_KNEE			R_MED_KNEE			L_LAT_ANK			L_MED_ANK			R_LAT_ANK			R_MED_ANK			L_THIGH_PROX_POST			L_THIGH_PROX_ANT			L_THIGH_DIST_ANT			L_THIGH_DIST_POST			R_THIGH_PROX_POST			R_THIGH_PROX_ANT			R_THIGH_DIST_ANT			R_THIGH_DIST_POST			L_SHANK_PROX_POST			L_SHANK_PROX_ANT			L_SHANK_DIST_ANT			L_SHANK_DIST_POST			R_SHANK_PROX_POST			R_SHANK_PROX_ANT			R_SHANK_DIST_ANT			R_SHANK_DIST_POST			L_HEEL_LAT			L_HEEL_SUP			L_HEEL_MED			R_HEEL_LAT			R_HEEL_SUP			R_HEEL_MED			L_1ST_MET			L_5TH_MET			L_TOE			R_1ST_MET			R_5TH_MET			R_TOE			
		X1	Y1	Z1	X2	Y2	Z2	X3	Y3	Z3	X4	Y4	Z4	X5	Y5	Z5	X6	Y6	Z6	X7	Y7	Z7	X8	Y8	Z8	X9	Y9	Z9	X10	Y10	Z10	X11	Y11	Z11	X12	Y12	Z12	X13	Y13	Z13	X14	Y14	Z14	X15	Y15	Z15	X16	Y16	Z16	X17	Y17	Z17	X18	Y18	Z18	X19	Y19	Z19	X20	Y20	Z20	X21	Y21	Z21	X22	Y22	Z22	X23	Y23	Z23	X24	Y24	Z24	X25	Y25	Z25	X26	Y26	Z26	X27	Y27	Z27	X28	Y28	Z28	X29	Y29	Z29	X30	Y30	Z30	X31	Y31	Z31	X32	Y32	Z32	X33	Y33	Z33	X34	Y34	Z34	X35	Y35	Z35	X36	Y36	Z36	X37	Y37	Z37	X38	Y38	Z38	X39	Y39	Z39	X40	Y40	Z40	X41	Y41	Z41	X42	Y42	Z42	X43	Y43	Z43	X44	Y44	Z44	X45	Y45	Z45	X46	Y46	Z46	X47	Y47	Z47	X48	Y48	Z48	X49	Y49	Z49	

162	0.67343	161.64	1461.7	444.97	205.26	1484.8	98.63	147.78	1759.2	275.22	221.3	1416	271.73	140.54	1035.7	105.79	156.34	1077.4	432.52	197.83	953.79	135.45	238.64	993.35	407.75	97.564	865.31	92.161	182.44	924.97	470.3	28.228	1024.5	228.8	33.209	1040.6	321.11	16.756	1000.7	279.88	48.977	465.42	141.8	48.541	461.57	276.34	313.06	527.08	392.93	286.12	543.13	265.02	-294.7	225.35	179.29	-283.43	211.5	247.33	260.94	102.87	365.03	270.81	125.06	275.41	63.595	705.13	128.54	127.59	694.6	133.69	123.6	621.44	146.48	58.279	629.88	139.77	214.02	704.24	438.58	275.71	733.64	438.52	300.18	664.61	420.84	238.85	636.06	418.42	-28.341	425.37	149.46	9.869	394.75	165.11	-41.622	366.39	173.53	-84.977	405.08	177.7	245.16	365.54	398.22	314.07	365.04	393.71	306.64	289.46	382.13	236.27	292.77	385.15	-396.97	239.84	206.66	-373.26	255.89	240.15	-386.76	225.93	270.61	194.2	36.616	333.12	191.28	67.452	301.36	208.96	43.998	267.53	-254.42	76.675	229.51	-301.83	108.06	136.64	-217.37	44.726	182.03	414.67	61.025	284.02	377.4	43.811	387.83	464.81	64.656	337.16
163	0.67762	168.16	1462.5	445.08	211.14	1485.5	98.653	154.1	1759.9	275.79	227.5	1416.8	271.79	146.34	1036.2	106.28	162.56	1078.3	432.85	203.7	954.45	135.94	244.68	994.07	407.98	104.15	865.38	92.811	188.7	925.82	470.68	34.149	1025.2	229.36	39.259	1041.4	321.67	22.735	1001.5	280.5	59.748	465.98	141.21	62.181	459.15	275.39	316.22	526.79	393.08	289.11	543.09	265.29	-286.45	229.63	180.72	-273.94	214.13	248.04	261.36	103.02	364.98	271.28	125.13	275.33	72.243	704.7	128.92	136.43	694.98	133.65	133.44	621.73	146.18	67.981	629.29	139.85	218.59	704.7	439.05	280.58	733.75	438.77	304.54	664.55	421.07	243.03	636.35	418.83	-17.953	426.75	149.61	20.075	395.38	163.7	-31.602	367.48	172.59	-74.251	406.58	178.55	247.42	365.65	398.38	316.31	364.73	393.74	308.41	289.21	382.09	238.09	292.96	385.21	-387.82	244.88	210.64	-363.13	259.84	243.85	-376.5	229.43	273.9	194.33	36.851	333.14	191.43	67.652	301.36	209.05	44.132	267.55	-247.39	79.063	226.45	-296.39	113.5	135.63	-212.13	47.416	177.48	414.89	60.644	284.02	377.52	43.773	387.94	465.07	64.013	337.09
164	0.6818	174.71	1463.4	445.17	216.95	1486.2	98.627	160.43	1760.6	276.35	233.66	1417.6	271.8	152.04	1036.8	106.77	168.8	1079.3	433.18	209.5	955.16	136.4	250.71	994.8	408.19	110.66	865.56	93.456	194.94	926.68	471.07	40.013	1026	229.99	45.282	1042.3	322.28	28.686	1002.3	281.17	70.549	466.85	140.58	75.907	456.86	274.32	319.24	526.52	393.23	291.94	543.05	265.57	-277.87	233.87	182.15	-264.07	216.66	248.65	261.77	103.18	364.93	271.75	125.22	275.25	80.912	704.4	129.27	145.27	695.5	133.54	143.27	622.18	145.82	77.693	628.85	139.91	223.04	705.17	439.49	285.33	733.87	439.01	308.75	664.5	421.32	247.07	636.66	419.23	-7.4675	428.35	149.75	30.378	396.28	162.21	-21.44	368.78	171.58	-63.369	408.2	179.41	249.58	365.74	398.54	318.44	364.42	393.78	310.1	288.98	382.05	239.83	293.14	385.27	-378.29	249.69	214.72	-352.64	263.54	247.61	-365.83	232.62	277.19	194.45	37.091	333.16	191.57	67.855	301.35	209.15	44.264	267.57	-239.93	81.545	223.15	-290.53	119.03	134.53	-206.45	50.393	172.68	415.11	60.292	284.02	377.64	43.751	388.05	465.31	63.406	337.04
165	0.68598	181.26	1464.2	445.23	222.69	1487	98.554	166.75	1761.4	276.87	239.76	1418.4	271.77	157.66	1037.4	107.28	175.06	1080.3	433.52	215.25	955.95	136.81	256.7	995.54	408.36	117.09	865.87	94.093	201.15	927.54	471.44	45.821	1026.8	230.67	51.28	1043.2	322.94	34.608	1003.1	281.9	81.384	468.02	139.92	89.691	454.73	273.15	322.12	526.26	393.38	294.63	543.02	265.86	-268.95	238.05	183.57	-253.83	219.07	249.18	262.17	103.35	364.86	272.21	125.32	275.15	89.6	704.23	129.58	154.08	696.17	133.38	153.1	622.79	145.39	87.404	628.56	139.95	227.39	705.66	439.92	289.96	733.99	439.26	312.84	664.45	421.56	250.98	636.98	419.62	3.1185	430.14	149.88	40.781	397.43	160.64	-11.134	370.28	170.51	-52.335	409.93	180.26	251.65	365.83	398.7	320.47	364.14	393.81	311.71	288.77	382.01	241.5	293.32	385.34	-368.39	254.24	218.82	-341.8	266.99	251.36	-354.77	235.5	280.44	194.56	37.339	333.17	191.72	68.062	301.33	209.24	44.396	267.59	-232.05	84.101	219.68	-284.24	124.59	133.36	-200.32	53.617	167.69	415.33	59.965	284.02	377.76	43.743	388.16	465.55	62.83	337
